<svg width="49" height="37" viewBox="0 0 49 37" fill="none" xmlns="http://www.w3.org/2000/svg">
<path d="M14.5557 2.14941C16.0678 1.28335 17.9322 1.28335 19.4443 2.14941L30.0635 8.2334C31.5746 9.09915 32.5 10.6953 32.5 12.416V24.584C32.5 26.3047 31.5746 27.9009 30.0635 28.7666L19.4443 34.8506C17.9322 35.7167 16.0678 35.7167 14.5557 34.8506L3.93652 28.7666C2.42543 27.9009 1.50001 26.3047 1.5 24.584V12.416C1.50001 10.6953 2.42543 9.09915 3.93652 8.2334L14.5557 2.14941Z" fill="#39AAEC" stroke="white" stroke-width="3"/>
<path d="M29.5557 2.14941C31.0678 1.28335 32.9322 1.28335 34.4443 2.14941L45.0635 8.2334C46.5746 9.09915 47.5 10.6953 47.5 12.416V24.584C47.5 26.3047 46.5746 27.9009 45.0635 28.7666L34.4443 34.8506C32.9322 35.7167 31.0678 35.7167 29.5557 34.8506L18.9365 28.7666C17.4254 27.9009 16.5 26.3047 16.5 24.584V12.416C16.5 10.6953 17.4254 9.09915 18.9365 8.2334L29.5557 2.14941Z" fill="#8739EC" stroke="white" stroke-width="3"/>
</svg>
