<svg width="102" height="74" viewBox="0 0 102 74" fill="none" xmlns="http://www.w3.org/2000/svg">
<path d="M30.9159 3.4641C34.6287 1.32051 39.2031 1.32051 42.9159 3.4641L62.886 14.9938C66.5988 17.1374 68.8859 21.099 68.8859 25.3861V48.4456C68.8859 52.7328 66.5988 56.6943 62.8859 58.8379L42.9159 70.3676C39.2031 72.5112 34.6287 72.5112 30.9159 70.3676L10.9458 58.8379C7.23297 56.6943 4.94579 52.7328 4.94579 48.4456V25.3861C4.94579 21.0989 7.23298 17.1374 10.9458 14.9938L30.9159 3.4641Z" fill="#39AAEC"/>
<path d="M58.9159 3.4641C62.6287 1.32051 67.2031 1.32051 70.9159 3.4641L90.886 14.9938C94.5988 17.1374 96.8859 21.099 96.8859 25.3861V48.4456C96.8859 52.7328 94.5988 56.6943 90.8859 58.8379L70.9159 70.3676C67.2031 72.5112 62.6287 72.5112 58.9159 70.3676L38.9458 58.8379C35.233 56.6943 32.9458 52.7328 32.9458 48.4456V25.3861C32.9458 21.0989 35.233 17.1374 38.9458 14.9938L58.9159 3.4641Z" fill="#8739EC"/>
</svg>
