<svg width="189" height="268" viewBox="0 0 189 268" fill="none" xmlns="http://www.w3.org/2000/svg">
<rect x="26" y="6" width="163" height="126" rx="8" fill="#D9D9D9"/>
<path d="M86.1289 26.4141C90.5825 23.8625 96.0708 23.8625 100.524 26.4141L126.964 41.5615C131.416 44.1124 134.153 48.8223 134.153 53.9131V84.209C134.153 89.2999 131.416 94.0096 126.964 96.5605L100.524 111.709C96.0709 114.26 90.5824 114.26 86.1289 111.709L59.6895 96.5605C55.2371 94.0096 52.5 89.2999 52.5 84.209V53.9131C52.5001 48.8222 55.2372 44.1124 59.6895 41.5615L86.1289 26.4141Z" fill="#39AAEC" stroke="white" stroke-width="3"/>
<path d="M123.476 26.4141C127.929 23.8625 133.418 23.8625 137.871 26.4141L164.311 41.5615C168.763 44.1124 171.5 48.8223 171.5 53.9131V84.209C171.5 89.2999 168.763 94.0096 164.311 96.5605L137.871 111.709C133.418 114.26 127.929 114.26 123.476 111.709L97.0364 96.5605C92.5841 94.0096 89.8469 89.2999 89.8469 84.209V53.9131C89.8471 48.8222 92.5841 44.1124 97.0364 41.5615L123.476 26.4141Z" fill="#8739EC" stroke="white" stroke-width="3"/>
<rect width="19" height="268" rx="8" fill="#8739EC"/>
</svg>
